<svg width="416" height="64" viewBox="0 0 416 64" fill="none" xmlns="http://www.w3.org/2000/svg">
<g clip-path="url(#clip0_90_83)">
<path opacity="0.6" d="M0 32C21.3333 32 35.5556 28.4445 42.6667 21.3334V53.3334C35.5556 60.4445 21.3333 64 0 64V32Z" fill="#F472B6" style="fill:#F472B6;fill:color(display-p3 0.9569 0.4471 0.7137);fill-opacity:1;"/>
<path opacity="0.8" d="M10.6666 21.3333C32 21.3333 46.2222 17.7777 53.3333 10.6666V42.6666C46.2222 49.7777 32 53.3333 10.6666 53.3333V21.3333Z" fill="#F472B6" style="fill:#F472B6;fill:color(display-p3 0.9569 0.4471 0.7137);fill-opacity:1;"/>
<path d="M21.3334 10.6667C42.6667 10.6667 56.8889 7.11111 64 0V32C56.8889 39.1111 42.6667 42.6667 21.3334 42.6667V10.6667Z" fill="#DB2777" style="fill:#DB2777;fill:color(display-p3 0.8588 0.1529 0.4667);fill-opacity:1;"/>
</g>
<path d="M79.1994 54.7305V10.2293H92.859C96.3709 10.2293 99.3927 10.7006 101.925 11.643C104.497 12.5445 106.478 13.9377 107.866 15.8227C109.295 17.7076 110.01 20.1253 110.01 23.0756C110.01 25.1245 109.622 26.989 108.846 28.669C108.07 30.3081 106.947 31.7218 105.477 32.9102C104.048 34.0985 102.312 35.041 100.271 35.7376C101.373 36.2703 102.312 37.1308 103.088 38.3191L113.991 54.7305H106.396C104.926 54.7305 103.885 54.1773 103.272 53.0709L94.1453 38.8723C93.7778 38.3396 93.3898 37.9708 92.9815 37.766C92.5731 37.5201 91.9606 37.3972 91.1439 37.3972H87.7137V54.7305H79.1994ZM87.7137 31.435H92.7365C95.6766 31.435 97.9022 30.7384 99.4131 29.3452C100.965 27.9519 101.741 26.067 101.741 23.6903C101.741 21.4366 101.006 19.7155 99.5356 18.5272C98.1064 17.3388 95.8808 16.7447 92.859 16.7447H87.7137V31.435ZM108.417 54.7305L105.232 47.7234L109.397 48.5839L108.417 54.7305ZM74.6667 54.7305V51.1655C74.6667 50.5918 74.8096 50.1615 75.0955 49.8747C75.4221 49.5879 75.8713 49.383 76.443 49.26L79.9345 48.5225L80.7308 54.7305H74.6667ZM80.7308 10.2293L79.9345 16.4374L76.443 15.6998C75.8713 15.5768 75.4221 15.3719 75.0955 15.0851C74.8096 14.7983 74.6667 14.368 74.6667 13.7943V10.2293H80.7308ZM86.2436 54.7305L86.9786 48.5225L90.5314 49.26C91.0622 49.383 91.491 49.5879 91.8177 49.8747C92.1444 50.1615 92.3077 50.5918 92.3077 51.1655V54.7305H86.2436ZM108.417 54.7305L109.214 48.5225L112.705 49.26C113.277 49.383 113.706 49.5879 113.991 49.8747C114.318 50.1615 114.481 50.5918 114.481 51.1655V54.7305H108.417Z" fill="url(#paint0_linear_90_83)" style=""/>
<path d="M130.96 55.2222C127.815 55.2222 125.079 54.5256 122.752 53.1324C120.424 51.6982 118.607 49.7108 117.3 47.1702C116.034 44.5887 115.401 41.6178 115.401 38.2577C115.401 35.3073 116.034 32.6643 117.3 30.3286C118.566 27.9519 120.342 26.0875 122.629 24.7352C124.916 23.342 127.57 22.6454 130.592 22.6454C133.328 22.6454 135.717 23.2396 137.759 24.4279C139.841 25.5753 141.434 27.2143 142.537 29.3452C143.68 31.476 144.252 34.0165 144.252 36.9669C144.252 38.0733 144.15 38.8519 143.945 39.3026C143.741 39.7124 143.251 39.9173 142.475 39.9173H123.18C123.18 40.0402 123.18 40.1631 123.18 40.2861C123.18 40.409 123.201 40.5319 123.242 40.6548C123.568 43.5232 124.446 45.6745 125.876 47.1087C127.346 48.5429 129.265 49.26 131.633 49.26C132.736 49.26 133.839 49.0347 134.941 48.5839C136.085 48.1332 137.126 47.6824 138.065 47.2317C139.004 46.74 139.76 46.4941 140.331 46.4941C140.903 46.4941 141.373 46.7195 141.74 47.1702L144.007 49.9976C142.904 51.2679 141.618 52.2924 140.148 53.0709C138.718 53.8495 137.207 54.4027 135.615 54.7305C134.063 55.0583 132.511 55.2222 130.96 55.2222ZM123.303 35.3073H137.33C137.33 33.2585 136.779 31.5579 135.676 30.2057C134.574 28.8534 132.94 28.1773 130.776 28.1773C128.612 28.1773 126.896 28.792 125.631 30.0213C124.406 31.2506 123.63 33.0126 123.303 35.3073Z" fill="url(#paint1_linear_90_83)" style=""/>
<path d="M156.714 55.2222C154.918 55.2222 153.325 54.8944 151.937 54.2388C150.548 53.5831 149.466 52.6202 148.69 51.3499C147.914 50.0796 147.526 48.502 147.526 46.617C147.526 45.4697 147.833 44.3223 148.445 43.1749C149.098 41.9866 150.14 40.9212 151.569 39.9787C153.039 39.0772 154.979 38.3191 157.388 37.7045C159.797 37.0489 162.778 36.6801 166.331 36.5981V34.8156C166.331 32.6848 165.882 31.1277 164.984 30.1442C164.126 29.1198 162.86 28.6076 161.186 28.6076C160.002 28.6076 158.899 28.8534 157.878 29.3452C156.898 29.7959 155.979 30.2671 155.122 30.7589C154.305 31.2096 153.509 31.435 152.733 31.435C152.202 31.435 151.732 31.2916 151.324 31.0047C150.957 30.7179 150.671 30.3901 150.466 30.0213L149.058 27.5626C150.895 25.8826 152.896 24.6328 155.06 23.8132C157.266 22.9937 159.634 22.5839 162.166 22.5839C164.616 22.5839 166.719 23.0961 168.475 24.1206C170.231 25.145 171.579 26.5792 172.518 28.4232C173.457 30.2671 173.927 32.3979 173.927 34.8156V54.7305H170.435C169.659 54.7305 169.067 54.6281 168.659 54.4232C168.291 54.2183 167.985 53.7675 167.74 53.0709L167.127 50.8582C165.535 52.2514 163.942 53.3373 162.35 54.1158C160.798 54.8534 158.919 55.2222 156.714 55.2222ZM159.164 49.9362C160.635 49.9362 161.921 49.6698 163.023 49.1371C164.167 48.5634 165.269 47.7234 166.331 46.617V41.331C164.534 41.3719 162.921 41.5154 161.492 41.7612C160.104 41.9661 158.919 42.2734 157.939 42.6832C157 43.052 156.265 43.5437 155.734 44.1584C155.244 44.7321 154.999 45.4287 154.999 46.2482C154.999 47.6005 155.367 48.5634 156.102 49.1371C156.878 49.6698 157.899 49.9362 159.164 49.9362ZM172.395 54.7305L173.192 48.5225L176.744 49.26C177.275 49.383 177.704 49.5879 178.031 49.8747C178.357 50.1615 178.521 50.5918 178.521 51.1655V54.7305H172.395Z" fill="url(#paint2_linear_90_83)" style=""/>
<path d="M192.719 55.2222C190.31 55.2222 188.228 54.5461 186.472 53.1939C184.756 51.8006 183.429 49.8952 182.49 47.4775C181.551 45.0599 181.081 42.253 181.081 39.0567C181.081 35.9425 181.633 33.156 182.735 30.6974C183.838 28.2388 185.41 26.2719 187.452 24.7967C189.493 23.3215 191.882 22.5839 194.618 22.5839C196.374 22.5839 197.865 22.8708 199.09 23.4444C200.315 23.9771 201.417 24.7147 202.397 25.6572V9H210.177V54.7305H205.399C204.378 54.7305 203.725 54.2593 203.439 53.3168L202.826 50.305C201.56 51.7801 200.09 52.9685 198.416 53.87C196.742 54.7715 194.843 55.2222 192.719 55.2222ZM195.353 49.1371C196.905 49.1371 198.232 48.8093 199.335 48.1537C200.437 47.498 201.458 46.576 202.397 45.3877V31.1891C201.54 30.1647 200.621 29.4476 199.641 29.0378C198.661 28.6281 197.599 28.4232 196.456 28.4232C194.863 28.4232 193.516 28.8329 192.413 29.6525C191.351 30.472 190.535 31.6809 189.963 33.279C189.391 34.8361 189.105 36.762 189.105 39.0567C189.105 42.3349 189.616 44.8345 190.637 46.5556C191.658 48.2766 193.23 49.1371 195.353 49.1371ZM203.929 9L203.133 15.208L199.58 14.4704C199.049 14.3475 198.62 14.1426 198.294 13.8558C197.967 13.569 197.803 13.1387 197.803 12.565V9H203.929ZM208.645 54.7305L209.442 48.5225L212.994 49.26C213.525 49.383 213.954 49.5879 214.281 49.8747C214.607 50.1615 214.771 50.5918 214.771 51.1655V54.7305H208.645Z" fill="url(#paint3_linear_90_83)" style=""/>
<path d="M238.951 55.2222C235.684 55.2222 232.703 54.669 230.008 53.5626C227.353 52.4153 225.066 50.7557 223.147 48.5839C221.31 46.4531 219.942 44.0355 219.043 41.331C218.186 38.5855 217.757 35.7581 217.757 32.8487C217.757 29.4476 218.288 26.3743 219.349 23.6288C220.452 20.8424 221.963 18.4657 223.882 16.4988C225.842 14.4909 228.15 12.9338 230.804 11.8274C233.499 10.721 236.419 10.1678 239.563 10.1678C241.237 10.1678 242.83 10.3113 244.341 10.5981C245.893 10.8849 247.424 11.2742 248.935 11.766C250.446 12.2577 251.977 12.8109 253.529 13.4255V17.9125L249.241 17.1135C247.975 16.6627 246.566 16.253 245.015 15.8842C243.463 15.5154 241.789 15.331 239.992 15.331C236.725 15.331 233.867 16.0686 231.416 17.5437C229.007 18.9779 227.129 21.0063 225.781 23.6288C224.474 26.2514 223.821 29.3247 223.821 32.8487C223.821 36.0859 224.413 39.0158 225.597 41.6383C226.782 44.2199 228.558 46.2687 230.926 47.7849C233.336 49.301 236.296 50.0591 239.808 50.0591C241.768 50.0591 243.585 49.7723 245.26 49.1986C246.975 48.5839 248.649 47.539 250.282 46.0638C250.487 45.8999 250.67 45.7975 250.834 45.7565C250.997 45.6745 251.16 45.6336 251.324 45.6336C251.65 45.6336 251.936 45.7565 252.181 46.0024L254.509 48.5839C252.876 50.4689 250.772 52.0465 248.2 53.3168C245.668 54.5871 242.585 55.2222 238.951 55.2222ZM248.506 16.3759L253.529 17.9125V23.5059H250.711C250.385 23.5059 250.099 23.4444 249.854 23.3215C249.649 23.1576 249.507 22.8913 249.425 22.5225L248.506 16.3759Z" fill="url(#paint4_linear_90_83)" style=""/>
<path d="M263.02 54.7305V23.5674H266.144C266.756 23.5674 267.185 23.6903 267.43 23.9362C267.675 24.1411 267.818 24.5303 267.859 25.104L268.226 29.9598C269.288 27.788 270.595 26.0875 272.147 24.8582C273.698 23.6288 275.536 23.0142 277.659 23.0142C278.517 23.0142 279.293 23.1166 279.987 23.3215C280.681 23.5264 281.314 23.7927 281.886 24.1206L281.212 28.2388C281.171 28.4846 281.049 28.669 280.845 28.792C280.681 28.9149 280.477 28.9764 280.232 28.9764C279.946 28.9764 279.395 28.8944 278.578 28.7305C277.762 28.5256 277.047 28.4232 276.434 28.4232C274.556 28.4232 272.963 28.9764 271.657 30.0827C270.391 31.1891 269.329 32.7872 268.471 34.8771V54.7305H263.02ZM266.634 54.7305L267.308 49.9362L271.902 50.9196C272.228 50.9606 272.473 51.104 272.637 51.3499C272.8 51.5548 272.882 51.8416 272.882 52.2104V54.7305H266.634ZM258.61 54.7305V52.2104C258.61 51.8416 258.691 51.5548 258.855 51.3499C259.018 51.104 259.263 50.9606 259.59 50.9196L264.184 49.9362L264.857 54.7305H258.61ZM264.857 23.5674L264.184 28.3617L259.59 27.3782C259.263 27.2963 259.018 27.1529 258.855 26.948C258.691 26.7431 258.61 26.4563 258.61 26.0875V23.5674H264.857Z" fill="url(#paint5_linear_90_83)" style=""/>
<path d="M292.502 55.2222C290.869 55.2222 289.399 54.9149 288.092 54.3002C286.785 53.6446 285.744 52.7021 284.968 51.4728C284.192 50.2435 283.804 48.7273 283.804 46.9244C283.804 45.695 284.131 44.5272 284.784 43.4208C285.479 42.2734 286.581 41.249 288.092 40.3475C289.603 39.487 291.563 38.7699 293.972 38.1962C296.423 37.6225 299.404 37.2947 302.915 37.2128V34.8156C302.915 32.3979 302.385 30.5745 301.323 29.3452C300.302 28.0749 298.791 27.4397 296.79 27.4397C295.728 27.4397 294.605 27.7266 293.421 28.3002C292.278 28.8329 291.216 29.3861 290.236 29.9598C289.256 30.4925 288.48 30.7589 287.908 30.7589C287.541 30.7589 287.214 30.6564 286.928 30.4515C286.683 30.2467 286.479 30.0008 286.316 29.7139L285.336 27.9929C287.051 26.3128 288.888 25.063 290.849 24.2435C292.849 23.424 295.055 23.0142 297.464 23.0142C299.792 23.0142 301.752 23.5059 303.344 24.4894C304.937 25.4728 306.142 26.8455 306.958 28.6076C307.816 30.3696 308.245 32.4389 308.245 34.8156V54.7305H305.856C305.325 54.7305 304.896 54.6485 304.569 54.4846C304.243 54.3207 304.018 53.9724 303.896 53.4397L303.283 50.5508C301.65 52.026 300.016 53.1734 298.383 53.9929C296.749 54.8124 294.789 55.2222 292.502 55.2222ZM294.095 51.3499C295.933 51.3499 297.546 50.9811 298.934 50.2435C300.322 49.5059 301.65 48.4815 302.915 47.1702V40.7163C300.792 40.7573 298.873 40.9212 297.158 41.208C295.443 41.4539 293.972 41.8227 292.747 42.3144C291.563 42.7652 290.644 43.3593 289.991 44.0969C289.378 44.7935 289.072 45.6541 289.072 46.6785C289.072 48.3176 289.542 49.5059 290.481 50.2435C291.461 50.9811 292.666 51.3499 294.095 51.3499ZM306.407 54.7305L307.081 49.9362L311.675 50.9196C312.001 50.9606 312.246 51.104 312.41 51.3499C312.573 51.5548 312.655 51.8416 312.655 52.2104V54.7305H306.407Z" fill="url(#paint6_linear_90_83)" style=""/>
<path d="M320.038 54.7305V28.2388L316.608 27.87C316.199 27.747 315.852 27.5831 315.566 27.3782C315.28 27.1734 315.137 26.866 315.137 26.4563V24.182H320.038V21.1702C320.038 17.6462 320.997 14.9212 322.917 12.9953C324.836 11.0284 327.429 10.0449 330.696 10.0449C331.39 10.0449 332.064 10.1064 332.717 10.2293C333.371 10.3113 333.983 10.4547 334.555 10.6596L334.432 13.3641C334.392 13.7329 334.269 13.9787 334.065 14.1017C333.901 14.1836 333.677 14.2246 333.391 14.2246C333.105 14.2246 332.819 14.2246 332.533 14.2246C332.248 14.2246 331.941 14.2246 331.615 14.2246C329.573 14.2246 328.021 14.7983 326.959 15.9456C325.898 17.052 325.367 18.855 325.367 21.3546V24.182H334.31V28.1773H325.551V54.7305H320.038ZM315.627 54.7305V52.2104C315.627 51.8416 315.709 51.5548 315.873 51.3499C316.036 51.104 316.281 50.9606 316.608 50.9196L321.202 49.9362L321.875 54.7305H315.627ZM323.713 54.7305L324.387 49.9362L328.981 50.9196C329.307 50.9606 329.552 51.104 329.716 51.3499C329.879 51.5548 329.961 51.8416 329.961 52.2104V54.7305H323.713Z" fill="url(#paint7_linear_90_83)" style=""/>
<path d="M349.506 55.2222C347.056 55.2222 345.157 54.5461 343.81 53.1939C342.503 51.8006 341.85 49.8132 341.85 47.2317V28.1773H338.113C337.787 28.1773 337.501 28.0749 337.256 27.87C337.052 27.6651 336.949 27.3578 336.949 26.948V24.7967L342.034 24.1206L343.32 14.5319C343.402 13.8353 343.81 13.487 344.545 13.487H347.301V24.182H356.183V28.1773H347.301V46.8629C347.301 48.1742 347.608 49.1576 348.22 49.8132C348.873 50.4279 349.711 50.7352 350.732 50.7352C351.181 50.7352 351.671 50.6123 352.202 50.3664C352.732 50.1206 353.222 49.8747 353.672 49.6288C354.121 49.383 354.448 49.26 354.652 49.26C354.938 49.26 355.183 49.424 355.387 49.7518L356.979 52.3948C356.04 53.2553 354.897 53.9519 353.549 54.4846C352.242 54.9764 350.895 55.2222 349.506 55.2222Z" fill="url(#paint8_linear_90_83)" style=""/>
<path d="M364.347 55.2222C363.571 55.2222 362.897 54.9354 362.326 54.3617C361.754 53.788 361.468 53.0914 361.468 52.2719C361.468 51.4933 361.754 50.8172 362.326 50.2435C362.897 49.6288 363.571 49.3215 364.347 49.3215C365.164 49.3215 365.858 49.6288 366.43 50.2435C367.001 50.8172 367.287 51.4933 367.287 52.2719C367.287 53.0914 367.001 53.788 366.43 54.3617C365.858 54.9354 365.164 55.2222 364.347 55.2222Z" fill="url(#paint9_linear_90_83)" style=""/>
<path d="M376.923 54.7305V24.0591H379.986V54.7305H376.923ZM372.207 54.7305V53.3168C372.207 53.0709 372.268 52.8865 372.39 52.7636C372.513 52.5997 372.676 52.5177 372.88 52.5177L377.536 51.9645L377.903 54.7305H372.207ZM379.006 54.7305L379.373 51.9645L384.029 52.5177C384.233 52.5177 384.396 52.5997 384.519 52.7636C384.641 52.8865 384.702 53.0709 384.702 53.3168V54.7305H379.006ZM377.903 24.0591L377.536 26.8251L372.88 26.2719C372.676 26.2309 372.513 26.1489 372.39 26.026C372.268 25.9031 372.207 25.7187 372.207 25.4728V24.0591H377.903ZM378.393 16.3759C377.699 16.3759 377.066 16.089 376.494 15.5154C375.923 14.9417 375.637 14.3065 375.637 13.6099C375.637 12.8314 375.902 12.1757 376.433 11.643C377.005 11.0693 377.658 10.7825 378.393 10.7825C379.169 10.7825 379.843 11.0693 380.415 11.643C380.986 12.1757 381.272 12.8314 381.272 13.6099C381.272 14.3065 380.986 14.9417 380.415 15.5154C379.843 16.089 379.169 16.3759 378.393 16.3759Z" fill="url(#paint10_linear_90_83)" style=""/>
<path d="M402.095 23.5674C405.076 23.5674 407.588 24.2435 409.63 25.5957C411.712 26.907 413.284 28.751 414.346 31.1277C415.449 33.4634 416 36.2088 416 39.3641C416 42.5193 415.449 45.2853 414.346 47.6619C413.284 49.9976 411.712 51.8211 409.63 53.1324C407.588 54.4437 405.076 55.0993 402.095 55.0993C399.155 55.0993 396.644 54.4437 394.561 53.1324C392.479 51.8211 390.886 49.9771 389.783 47.6005C388.681 45.2238 388.13 42.4783 388.13 39.3641C388.13 36.2498 388.681 33.5043 389.783 31.1277C390.886 28.751 392.479 26.907 394.561 25.5957C396.644 24.2435 399.155 23.5674 402.095 23.5674ZM402.095 52.6407C405.689 52.6407 408.364 51.4523 410.12 49.0756C411.916 46.658 412.815 43.4413 412.815 39.4255C412.815 36.6801 412.406 34.3239 411.59 32.357C410.814 30.3491 409.63 28.792 408.037 27.6856C406.485 26.5792 404.505 26.026 402.095 26.026C399.686 26.026 397.665 26.5792 396.031 27.6856C394.439 28.792 393.255 30.3491 392.479 32.357C391.703 34.3649 391.315 36.721 391.315 39.4255C391.315 43.4003 392.213 46.5965 394.01 49.0142C395.807 51.4318 398.502 52.6407 402.095 52.6407Z" fill="url(#paint11_linear_90_83)" style=""/>
<defs>
<linearGradient id="paint0_linear_90_83" x1="73.074" y1="34.2418" x2="624.356" y2="34.2418" gradientUnits="userSpaceOnUse">
<stop stop-color="#F9FAFB"/>
<stop offset="1" stop-color="#E5E7EB"/>
</linearGradient>
<linearGradient id="paint1_linear_90_83" x1="73.074" y1="34.2418" x2="624.356" y2="34.2418" gradientUnits="userSpaceOnUse">
<stop stop-color="#F9FAFB"/>
<stop offset="1" stop-color="#E5E7EB"/>
</linearGradient>
<linearGradient id="paint2_linear_90_83" x1="73.074" y1="34.2418" x2="624.356" y2="34.2418" gradientUnits="userSpaceOnUse">
<stop stop-color="#F9FAFB"/>
<stop offset="1" stop-color="#E5E7EB"/>
</linearGradient>
<linearGradient id="paint3_linear_90_83" x1="73.074" y1="34.2418" x2="624.356" y2="34.2418" gradientUnits="userSpaceOnUse">
<stop stop-color="#F9FAFB"/>
<stop offset="1" stop-color="#E5E7EB"/>
</linearGradient>
<linearGradient id="paint4_linear_90_83" x1="73.074" y1="34.2418" x2="624.356" y2="34.2418" gradientUnits="userSpaceOnUse">
<stop stop-color="#F9FAFB"/>
<stop offset="1" stop-color="#E5E7EB"/>
</linearGradient>
<linearGradient id="paint5_linear_90_83" x1="73.074" y1="34.2418" x2="624.356" y2="34.2418" gradientUnits="userSpaceOnUse">
<stop stop-color="#F9FAFB"/>
<stop offset="1" stop-color="#E5E7EB"/>
</linearGradient>
<linearGradient id="paint6_linear_90_83" x1="73.074" y1="34.2418" x2="624.356" y2="34.2418" gradientUnits="userSpaceOnUse">
<stop stop-color="#F9FAFB"/>
<stop offset="1" stop-color="#E5E7EB"/>
</linearGradient>
<linearGradient id="paint7_linear_90_83" x1="73.074" y1="34.2418" x2="624.356" y2="34.2418" gradientUnits="userSpaceOnUse">
<stop stop-color="#F9FAFB"/>
<stop offset="1" stop-color="#E5E7EB"/>
</linearGradient>
<linearGradient id="paint8_linear_90_83" x1="73.074" y1="34.2418" x2="624.356" y2="34.2418" gradientUnits="userSpaceOnUse">
<stop stop-color="#F9FAFB"/>
<stop offset="1" stop-color="#E5E7EB"/>
</linearGradient>
<linearGradient id="paint9_linear_90_83" x1="73.074" y1="34.2418" x2="624.356" y2="34.2418" gradientUnits="userSpaceOnUse">
<stop stop-color="#F9FAFB"/>
<stop offset="1" stop-color="#E5E7EB"/>
</linearGradient>
<linearGradient id="paint10_linear_90_83" x1="73.074" y1="34.2418" x2="624.356" y2="34.2418" gradientUnits="userSpaceOnUse">
<stop stop-color="#F9FAFB"/>
<stop offset="1" stop-color="#E5E7EB"/>
</linearGradient>
<linearGradient id="paint11_linear_90_83" x1="73.074" y1="34.2418" x2="624.356" y2="34.2418" gradientUnits="userSpaceOnUse">
<stop stop-color="#F9FAFB"/>
<stop offset="1" stop-color="#E5E7EB"/>
</linearGradient>
<clipPath id="clip0_90_83">
<rect width="64" height="64" fill="white" style="fill:white;fill-opacity:1;"/>
</clipPath>
</defs>
</svg>